<svg xmlns="http://www.w3.org/2000/svg" viewBox="0 0 720 240">
  <path fill="#404041" d="M712.6 194a6.06 6.06 0 0 1-6.1-6.1 6.1 6.1 0 1 1 12.2 0 6.19 6.19 0 0 1-6.1 6.1m0-11a4.9 4.9 0 1 0 4.9 4.9 4.91 4.91 0 0 0-4.9-4.9m3.1 8.1h-1.35l-1.2-2.3h-1.6v2.3h-1.3v-6.7h3.2a2.13 2.13 0 0 1 2.3 2.2 2.08 2.08 0 0 1-1.4 2zm-2.4-3.5a.94.94 0 0 0 1-1c0-.8-.4-1-1-1h-2v2zm-636.2-6.35h15.6v42.5h27.1v13.6H77.1zm58.8 28.2v-.2c0-16.1 13-29.2 30.3-29.2s30.1 12.9 30.1 29v.2c0 16.1-13 29.2-30.3 29.2s-30.1-12.9-30.1-29m44.6 0v-.2c0-8.1-5.8-15.1-14.4-15.1s-14.2 6.9-14.2 15v.2c0 8.1 5.8 15.1 14.3 15.1s14.3-6.9 14.3-15m34.9 3.3v-31.5h15.8v31.2c0 8.1 4.1 11.9 10.3 11.9s10.3-3.7 10.3-11.5v-31.6h15.8v31.1c0 18.1-10.3 26-26.3 26s-25.9-8-25.9-25.6m76-31.5H313c20 0 31.7 11.5 31.7 27.7v.2c0 16.2-11.8 28.2-32 28.2h-21.3v-56.1zm21.9 42.3c9.3 0 15.5-5.1 15.5-14.2v-.2c0-9-6.2-14.2-15.5-14.2H307v28.5h6.35zm54.05-42.3h44.9v13.6h-29.4v9.6h26.6v12.9h-26.6v20h-15.5zm66.5 0h15.5v42.5h27.2v13.6h-42.7zm83.3-.4h15l23.9 56.5h-16.7l-4.1-10h-21.6l-4 10h-16.3l23.8-56.5zm13.7 34.4l-6.2-15.9-6.3 15.9zm45.2-34h26.5c8.6 0 14.5 2.2 18.3 6.1 3.3 3.2 5 7.5 5 13.1v.2c0 8.6-4.6 14.3-11.5 17.2l13.4 19.6h-18l-11.3-17h-6.8v17h-15.6v-56.2zm25.8 26.9c5.3 0 8.3-2.6 8.3-6.6v-.2c0-4.4-3.2-6.6-8.4-6.6h-10.2v13.4zm46.4-26.9h45.1v13.2h-29.7v8.5h26.9v12.3h-26.9v8.9h30.1v13.2h-45.5zm-605.1 34.8a13.79 13.79 0 0 1-12.8 8.4c-8.5 0-14.3-7.1-14.3-15.1v-.2c0-8.1 5.7-15 14.2-15a13.93 13.93 0 0 1 13.3 9.3h16.4c-2.6-13.4-14.4-23.3-29.6-23.3-17.3 0-30.3 13.1-30.3 29.2v.2c0 16.1 12.8 29 30.1 29 14.8 0 26.4-9.6 29.4-22.4l-16.4-.1z"/>
  <path fill="#fff" d="M674.9 91.7L632 67.1l-7.4-3.2-175.5 1.2v89.15h225.8z"/>
  <path fill="#f38020" d="M596.8 146c2.1-7.2 1.3-13.8-2.2-18.7-3.2-4.5-8.6-7.1-15.1-7.4l-123.1-1.6a2.28 2.28 0 0 1-1.9-1 2.76 2.76 0 0 1-.3-2.2 3.38 3.38 0 0 1 2.9-2.2l124.2-1.6c14.7-.7 30.7-12.6 36.3-27.2l7.1-18.5a4 4 0 0 0 .2-2.4 80.87 80.87 0 0 0-155.5-8.3 36.35 36.35 0 0 0-58 25.4 38.18 38.18 0 0 0 .9 12.7 51.66 51.66 0 0 0-50.2 51.7 63 63 0 0 0 .5 7.5 2.46 2.46 0 0 0 2.4 2.1h227.2a3.09 3.09 0 0 0 2.9-2.2l1.7-6.1z"/>
  <path fill="#faae40" d="M636 66.9c-1.1 0-2.3 0-3.4.1a2 2 0 0 0-1.8 1.4L626 85.1c-2.1 7.2-1.3 13.8 2.2 18.7 3.2 4.5 8.6 7.1 15.1 7.4l26.2 1.6a2.28 2.28 0 0 1 1.9 1 2.82 2.82 0 0 1 .3 2.2 3.38 3.38 0 0 1-2.9 2.2l-27.3 1.6c-14.8.7-30.7 12.6-36.3 27.2l-2 5.1a1.44 1.44 0 0 0 1.4 2h93.8a2.46 2.46 0 0 0 2.4-1.8 68.35 68.35 0 0 0 2.5-18.2A67.37 67.37 0 0 0 636 66.9"/>
</svg>
