<svg xmlns="http://www.w3.org/2000/svg" viewBox="0 0 211 183">
  <defs>
    <clipPath id="clip-path">
      <circle cx="106.13" cy="81.63" r="69.45" fill="none"/>
    </clipPath>
  </defs>
  <path d="M54.34 65.74H.67A.91.91 0 0 0-.15 67l11.89 24.82-11.89 24.6a.91.91 0 0 0 .82 1.31h53.67a.91.91 0 0 0 .91-.91V66.65a.91.91 0 0 0-.91-.91zm156.81 49.82l-11.89-24.17L211.15 67a.91.91 0 0 0-.81-1.3h-45.67a.91.91 0 0 0-.91.91V116a.91.91 0 0 0 .91.91h45.67a.91.91 0 0 0 .81-1.3z" fill="#a3001f"/>
  <circle cx="106.59" cy="80.85" r="76.92" fill="#fff"/>
  <path d="M185.74 85.31l2.1-3.68-2.1-3.68 1.75-3.86-2.43-3.47 1.39-4-2.74-3.23 1-4.12-3-3 .63-4.19-3.29-2.67.24-4.23-3.52-2.36-.16-4.24-3.72-2-.55-4.2-3.89-1.67-.93-4.13-4-1.31-1.31-4-4.21-.95-1.67-3.9-4.2-.55-2-3.72-4.22-.15-2.36-3.52-4.23.24-2.67-3.29-4.19.57-3-3-4.12 1-3.2-2.7-4 1.39-3.47-2.43L109.81 2l-3.68-2.1-3.69 2.1L98.59.26l-3.48 2.43-4-1.39L87.87 4l-4.11-1-3 3-4.16-.58-2.67 3.29-4.23-.24L67.34 12l-4.23.16-2 3.72-4.2.55-1.67 3.89-4.13.93-1.31 4-4 1.31-.93 4.13-3.89 1.67-.55 4.2-3.73 2-.16 4.24L33 45.2l.23 4.23-3.31 2.67.63 4.19-3 3 1 4.12-2.74 3.24 1.39 4-2.43 3.48 1.75 3.86-2.1 3.68 2.1 3.68-1.75 3.86 2.43 3.47-1.39 4 2.74 3.23-1 4.12 3 3-.63 4.19 3.29 2.67-.21 4.17 3.52 2.36.16 4.24 3.72 2 .55 4.2 3.89 1.67.93 4.13 4 1.31 1.31 4 4.13.93 1.67 3.89 4.2.55 2 3.72 4.23.16 2.36 3.52 4.23-.23 2.67 3.29 4.19-.63 3 3 4.12-1 3.23 2.83 4-1.39 3.48 2.39 3.86-1.75 3.68 2.1 3.68-2.1 3.86 1.75 3.47-2.43 4 1.39 3.23-2.74 4.11 1 3-3 4.19.63 2.67-3.29 4.23.24 2.36-3.52 4.24-.16 2-3.72 4.2-.55 1.67-3.9 4.13-.93 1.31-4 4-1.31.93-4.13 3.89-1.67.55-4.2 3.73-2 .16-4.24 3.52-2.36-.23-4.23 3.29-2.67-.62-4.19 3-3-1-4.12 2.74-3.24-1.39-4 2.43-3.48zm-5.12-3.68a74.49 74.49 0 1 1-74.49-74.49 74.57 74.57 0 0 1 74.48 74.49z" fill="#ccc"/>
  <g clip-path="url(#clip-path)">
    <path d="M36.68 12.12h69.45v92.6H36.68z"/>
    <path d="M106.13 12.12h69.45v92.6h-69.45z" fill="#ffe000"/>
    <path d="M134.15 121.81l.34-.06.47-.13.41-.13.47-.19.39-.17.45-.24.39-.21.32-.15.3-.17.34-.24.43-.28.21-.19.36-.3.17-.17.28-.28.28-.3.24-.32.19-.26.11-.17.17-.28.17-.32.11-.32.09-.24.11-.45.09-.43v-.86l-.09-.41-.09-.28-.17-.43-.26-.43-.26-.34-.19-.26-.34-.32-.41-.28-.34-.19-.56-.24-.58-.15h-.62l-.67.11-.67.24-.43.26-.43.34-.34.26-.52.34-.34.19h-.34l-.32-.09-.21-.19-.11-.19v-.32l.09-.39.19-.32.26-.39.28-.43.17-.3.15-.43.09-.43.06-.34v-.43l-.09-.62-.17-.52-.17-.43-.17-.3-.26-.34-.36-.36-.41-.28-.6-.24-.5-.17h-.64l-.53.08-.58.13-.41.15-.47.21-.58.34-.54.36-.54.49-.26.3-.28.34-.34.49-.28.47-.26.58-.26.69-.19.67-.13.54-.09.36-.09.58v1.16l.06.69v.41l.11.52.09.3.15.56.19.56.21.52.21.39.28.52.34.54.39.52.49.6.41.37.39.3.41.3.39.24.43.19.3.11.6.19.41.13.43.09.45.09h1.76zm23.12 14.72l-.41.13-.47.13-.34.06-.84.09h-1.76l-.45-.09-.43-.09-.41-.13-.6-.19-.3-.11-.43-.19-.39-.24-.41-.3-.39-.3-.41-.36-.49-.6-.39-.52-.34-.54-.28-.52-.21-.39-.21-.52-.19-.56-.15-.56-.09-.3-.11-.52v-.41l-.06-.69v-1.16l.09-.58.09-.36.13-.54.19-.67.26-.69.26-.58.28-.47.34-.49.28-.34.26-.3.54-.49.54-.36.58-.34.47-.21.41-.15.57-.08.53-.08h.64l.5.17.6.24.41.28.36.36.26.34.17.3.17.43.17.52.09.62v.43l-.06.34-.09.43-.15.43-.17.3-.28.43-.26.39-.19.32-.09.39v.32l.11.19.21.19.32.09h.34l.34-.19.52-.34.34-.26.43-.34.43-.26.67-.24.67-.11h.62l.58.15.56.24.34.19.41.28.34.32.19.26.26.34.26.43.17.43.09.28.09.41v.86l-.09.43-.11.45-.09.24-.11.32-.17.32-.17.28-.11.17-.19.26-.24.32-.28.3-.28.28-.17.17-.36.3-.21.19-.43.28-.34.24-.3.17-.32.15-.39.21-.45.24zm-52.82 14.22l.34-.06.47-.13.41-.13.47-.19.39-.17.45-.24.39-.21.32-.15.3-.17.34-.24.43-.28.21-.19.37-.3.17-.17.28-.28.28-.3.24-.32.19-.26.11-.17.17-.28.17-.32.11-.32.09-.24.11-.45.09-.43v-.86l-.09-.41-.09-.28-.17-.43-.26-.43-.26-.34-.19-.26-.34-.32-.41-.28-.34-.19-.56-.24-.58-.15h-.62l-.67.11-.67.24-.43.26-.43.34-.34.26-.52.34-.34.19h-.34l-.32-.09-.21-.19-.11-.19v-.32l.09-.39.19-.32.26-.39.28-.43.17-.3.15-.43.09-.43.06-.34v-.43l-.09-.62-.17-.52-.17-.43-.17-.3-.26-.34-.36-.36-.41-.28-.6-.24-.5-.17h-.64l-.53.08-.58.13-.41.15-.47.21-.58.34-.54.36-.54.49-.26.3-.28.34-.34.49-.28.47-.26.58-.26.69-.19.67-.13.54-.09.36-.09.58v1.16l.06.69v.41l.11.52.09.3.15.56.19.56.21.52.21.39.28.52.34.54.39.52.49.6.41.36.39.3.41.3.39.24.43.19.3.11.6.19.41.13.43.09.45.09h1.71zm-38.11-27l.34-.06.47-.13.41-.13.47-.19.39-.17.45-.24.39-.21.32-.15.3-.17.34-.24.43-.28.21-.19.37-.3.17-.17.28-.28.28-.3.24-.32.19-.26.11-.17.17-.28.17-.32.11-.32.09-.24.11-.45.09-.43v-.86l-.09-.41-.09-.28-.17-.43-.26-.43-.26-.34-.19-.26-.34-.32-.41-.28-.34-.19-.56-.24-.58-.15h-.62l-.67.11-.67.24-.43.26-.43.34-.34.26-.52.34-.34.19h-.34l-.32-.09L65 115l-.11-.19v-.32l.09-.39.19-.32.26-.39.28-.43.17-.3.15-.43.09-.43.06-.34v-.43l-.09-.62-.17-.52-.17-.43-.17-.3-.26-.34-.36-.36-.41-.28L64 108l-.5-.17h-.64l-.53.08-.58.13-.41.15-.47.21-.58.34-.54.36-.54.49-.26.3-.28.34-.34.49-.28.47-.26.58-.26.69-.19.67-.13.54-.09.36-.09.58v1.16l.06.69v.41l.11.52.09.3.15.56.19.56.21.52.21.39.28.52.34.54.39.52.49.6.41.36.39.3.41.3.39.24.43.19.3.11.6.19.41.13.43.09.45.09h1.76zm81.52 58.58l.34-.06.47-.13.41-.13.47-.19.39-.17.45-.24.39-.21.32-.15.3-.17.34-.24.43-.28.21-.19.36-.3.17-.17.28-.28.28-.3.24-.32.19-.26.11-.17.17-.28.17-.32.11-.32.09-.24.11-.45.09-.43v-.86l-.09-.41-.09-.28-.17-.43-.26-.43-.26-.34-.19-.26-.34-.32-.41-.28-.34-.19-.56-.24-.58-.15h-.62l-.67.11-.67.24-.43.26-.43.34-.34.26-.52.34-.34.19h-.34l-.32-.09-.21-.19-.11-.19v-.32l.09-.39.19-.32.26-.38.28-.43.17-.3.15-.43.09-.43.06-.34v-.43l-.09-.62-.17-.52-.17-.43-.17-.3-.26-.34-.36-.36-.41-.28-.6-.24-.5-.17h-.64l-.53.08-.58.13-.41.15-.47.21-.58.34-.54.36-.54.49-.26.3-.28.34-.34.49-.28.47-.26.58-.31.68-.19.67-.13.54-.09.36-.09.58v1.16l.06.69v.41l.11.52.09.3.15.56.19.56.21.52.21.39.28.52.34.54.39.52.49.6.41.36.39.3.41.3.39.24.43.19.3.11.6.19.41.13.43.09.45.09H147zM58.06 169l.34-.06.47-.13.41-.13.47-.19.39-.17.45-.24.39-.21.32-.15.3-.17.34-.24.43-.28.21-.19.37-.3.17-.17.28-.28.28-.3.24-.32.19-.26.11-.17.17-.28.17-.32.11-.32.09-.24.11-.45.13-.43v-.86l-.09-.41-.09-.28-.17-.43-.26-.43-.26-.34-.23-.25-.34-.32-.41-.28-.34-.19-.56-.24-.58-.15h-.62l-.67.11-.67.24-.43.26-.43.34-.34.26-.52.34-.34.19h-.34l-.32-.09-.21-.19-.11-.19v-.32l.09-.39.19-.32.26-.39.28-.43.17-.3.15-.43.09-.43.06-.34v-.43l-.09-.62-.17-.52-.17-.43-.17-.3-.26-.34-.36-.36-.41-.28-.6-.24-.5-.17h-.64l-.53.08-.58.13-.41.15-.47.21-.6.38-.54.36-.54.49-.26.3-.28.34-.38.51-.28.47-.26.58-.26.69-.19.67-.13.54-.09.36-.09.58V161l.06.69v.41l.11.52.09.3.15.56.19.56.21.52.21.39.28.52.34.54.39.52.49.6.41.36.39.3.41.3.39.24.43.19.3.11.6.19.41.13.44.05.45.09h1.76zm22.43 15.68l.34-.06.47-.13.41-.13.47-.19.39-.17.45-.24.39-.21.32-.15.3-.17.34-.24.43-.28.21-.19.37-.3.17-.17.28-.28.28-.3.24-.32.19-.26.11-.17.17-.28.17-.32.11-.32.09-.24.11-.45.09-.43v-.86l-.09-.41-.09-.28-.17-.43-.26-.43-.26-.34-.19-.26-.34-.32-.41-.28-.34-.19-.56-.24-.58-.15h-.62l-.67.11-.67.24-.43.26-.43.34-.34.26-.52.34-.34.19h-.34l-.32-.09-.22-.14-.11-.19v-.32l.09-.39.19-.32.26-.39.28-.43.17-.3.15-.43.09-.43.06-.34V172l-.09-.62-.17-.52-.17-.43-.17-.3-.26-.34-.36-.36-.41-.28-.6-.24-.5-.17h-.64l-.53.08-.58.13-.41.15-.47.21-.58.34-.54.36-.54.49-.26.3-.28.34-.34.49-.28.47-.26.58-.26.69-.19.67-.13.54-.09.36-.09.58v1.16l.06.69v.41l.11.52.09.3.15.56.19.56.21.52.21.39.28.52.34.54.39.52.49.6.41.36.39.3.41.3.39.24.43.19.3.11.6.19.41.13.43.09.45.09h1.76z" fill="#ef3e33"/>
    <path d="M168 127.68l-35.23-25.38H168zm-54.39 62.22h33.55L43 115v25zM97.4 102.39H64.68L168 176.61v-25zM43 189.9h33.7L43 164.75z" fill="#00539f"/>
  </g>
  <path d="M19.93 65.75h172.31v48.91H19.93z" fill="#534741" opacity=".22"/>
  <path d="M23.1 62.98h165.81v49.74H23.1z" fill="#ce3b39"/>
  <path d="M63.13 100.22a7.23 7.23 0 0 0 3 .65c1.77 0 4.12-.2 4.12-2.1 0-1.45-2.4-2-4.5-2.45-2.65-.58-6.17-1.32-6.17-4.85 0-3.37 3.52-4.92 6.95-4.92 3.6 0 6.72 1.5 6.72 3.7a2.08 2.08 0 0 1-2.1 2.2 1.86 1.86 0 0 1-2-1.77 1.38 1.38 0 0 1 .27-.9 6.27 6.27 0 0 0-2.82-.5c-2 0-3.7.72-3.7 2.12s2.2 1.85 4.32 2.3c2.67.57 6.35 1.62 6.35 5.12 0 2.92-2.65 4.72-7.2 4.72-3.32 0-7-1.35-7-3.77a2.09 2.09 0 0 1 2.15-2.22 1.8 1.8 0 0 1 1.95 1.77 1.51 1.51 0 0 1-.34.9zm26.65-11.08v-2.2h7v2.2l-1.87.45v13.55h-3.63l-7.12-9.67c-.42-.57-1.4-2.17-2.17-3.57.2 1.6.38 3.47.38 4.17v6.42l1.87.45v2.2h-7v-2.2l1.87-.45v-10.9l-1.87-.45v-2.2h6l6.57 9a34.61 34.61 0 0 1 2.1 3.6c-.18-1.6-.3-3.45-.3-4.15v-5.8zm15.35.6v3.77h6v2.8h-6v4h6.95l.3-1.5h2.4l.25 4.3H99.91v-2.2l1.87-.45V89.59l-1.87-.45v-2.2h14.87l-.25 4.3h-2.4l-.3-1.5zm18.63 0v3.77h6v2.8h-6v4h6.95l.3-1.5h2.4l.25 4.3h-15.13v-2.2l1.88-.45V89.59l-1.87-.45v-2.2h14.87l-.25 4.3h-2.4l-.3-1.5zm27.52 10.75l2.37.45v2.2h-4.4L144 95.92h-1.65v4.57l1.87.45v2.2h-7.1v-2.2l1.87-.45v-10.9l-1.87-.45v-2.2h7.1v2.2l-1.87.45v3.67h1.52l3.39-4.26c1.52-1.9 2.75-2.5 3.82-2.5a2.48 2.48 0 0 1 2.65 2.32 2.08 2.08 0 0 1-2.07 2.18 1.51 1.51 0 0 1-1.5-1c-.2.07-.41.2-.9.85l-2.65 3.47zm-68.5-29.37h2.73v1l-1 .21v6l1 .21v1H82v-1l1-.21v-3.61c0-.38.06-1.42.14-2.33-.36.81-.85 1.75-1 2.09l-1.59 2.73h-1.37l-1.53-2.71c-.18-.33-.65-1.3-1-2.16.06.94.12 2 .12 2.39v3.57l1 .21v1h-3.46v-1l1-.21v-6l-1-.21v-1h3l2.67 4.71zm11.13 6.07h-4.18l-.52 1.14 1 .17v1h-3.4v-1l.95-.21 3.46-7.2h1.3L96 78.3l1 .21v1h-3.53v-1l1-.17zM90.28 76h3l-1.09-2.37c-.17-.36-.36-.84-.44-1.08-.08.23-.27.72-.43 1.07zm7.97 2.51l1-.21v-6l-1-.21v-1H102c3.47 0 4.89 1.51 4.89 4.25s-2 4.12-4.77 4.12h-3.87zm3.94-.3c2.16 0 3.16-1.17 3.16-2.83 0-2-.82-3-3.33-3h-1.25v5.8zm9.05-5.8v2.18h3.28v1.29h-3.28v2.33H115l.14-.87h1.13l.12 2.16h-7.7v-1l1-.21v-6l-1-.21v-1h7.58l-.12 2.21h-1.13l-.14-.92zm14.41 5.89l1.12.21v1H123v-1l1.12-.21v-6l-1.12-.18v-1h3.72v1l-1.12.21zm9.5-6.18v-1h3.51v1l-1 .21v7.17H136l-4.11-5.43a15.51 15.51 0 0 1-1-1.61c.08.68.14 1.52.14 1.9v4l1 .21v1h-3.51v-1l1-.21v-6l-1-.21v-1h2.83l3.91 5.21a18.57 18.57 0 0 1 1 1.61c-.08-.66-.14-1.52-.14-1.9v-3.74z" fill="#fff"/>
  <path d="M31.08 150.12l-1-1 3.18-6.23-.41-.69.66-.65 2.2 2.23-.66.65-.69-.48-1.89 3.45a14.06 14.06 0 0 1-.92 1.38c.49-.29 1.16-.64 1.49-.78l3.29-1.38 1 1-1.5 3.28a13.65 13.65 0 0 1-.75 1.36 14.2 14.2 0 0 1 1.35-.8l3.57-1.77-.47-.7.66-.65 2.06 2.09-.66.65-.69-.43-6.33 3-1-1 1.59-3.5A9.85 9.85 0 0 1 36 148a13.2 13.2 0 0 1-1.3.68zm9.22 7.13l.66.82-.59.69-2.61-2.23.59-.69.91.52 3.57-4.19-.66-.82.6-.7 2.61 2.23-.6.7-.91-.52zm8.58-.18l-3.25 4.37.66.73-.55.73-2.64-2 .54-.73.89.42 3.25-4.37-1.51-1.13-.66.66-.85-.63 1.18-1.76 6.21 4.64-1.35 1.63-.8-.63.45-.82zm8.03 4.99l.48-.79L60.2 163l-.48.79-.92-.33-2.86 4.71.72.66-.47.78-2.81-1.71.47-.78.92.33 1.17-1.93-3.6-2.18-1.17 1.93.72.66-.47.78-2.8-1.71.47-.78.92.33 2.86-4.71-.72-.66.48-.79 2.81 1.71-.48.79-.92-.33L53 162.3l3.6 2.19 1.07-1.76zM64 172l2.76 1.21.48-.77 1 .42-.74 2-6.06-2.66.37-.83 1 .21 2.21-5-.8-.56.37-.85 3 1.32-.37.85-1-.21zm6-.2a4.19 4.19 0 0 1 7.95 2.67A4.2 4.2 0 0 1 70 171.8zm6.6 2.2a2.78 2.78 0 1 0-5.26-1.77A2.78 2.78 0 1 0 76.6 174zm9.4-.52l-.77-.34.21-.9 2.89.67-.21.9h-.82l-4.45 5.78-1.38-.32-1.47-7.14-.72-.36.21-.9 3 .7-.21.9h-.84l.89 4.62a8.35 8.35 0 0 1 .12 1.19 9.1 9.1 0 0 1 .65-1zm5 .99l-.28 2 3 .42-.16 1.18-3-.42-.29 2.13 3.45.48.24-.78 1 .14-.17 2-7-1 .13-.9 1-.06.76-5.45-.92-.32.13-.91 6.92 1-.39 2-1-.14v-.86zm15.7 5.53l-3.86-.06-.5 1 .9.17v.91h-3.11v-.91l.88-.18 3.29-6.6h1.2l3.13 6.69.9.21v.91h-3.25v-.91l.91-.14zm-3.33-1.16h2.81l-1-2.2c-.15-.34-.32-.78-.39-1-.08.21-.26.66-.41 1zm12.72-4.12l-.09-.92 3.22-.3.09.92-.94.28.62 6.57-1.48.14-4.24-4.63a14.28 14.28 0 0 1-1-1.39c.13.61.26 1.38.3 1.73l.34 3.63 1 .1.09.91-3.22.3-.09-.91.94-.28-.63-5.47-1-.1-.09-.92 2.6-.25 4 4.45a17.34 17.34 0 0 1 1.06 1.39c-.13-.6-.26-1.38-.3-1.73l-.32-3.41zm5.28 5.28l.91-.37-1.06-5.41h-1l-.18-.91 3.39-.67c3.14-.62 4.7.49 5.19 3s-1.08 4.09-3.59 4.59l-3.5.69zm3.52-1c2-.38 2.65-1.62 2.36-3.13-.36-1.83-1.27-2.54-3.54-2.09l-1.13.22 1 5.25zm13.22-3.17l.29.86-3.4 1.16-.29-.86.85-.49-1.76-5.21-1 .13-.3-.87 3.68-1.25c2-.66 3.38-.36 3.93 1.26s-.43 2.75-2.37 3.41l-1.45.49.54 1.6zm-.55-3.05c1.24-.42 1.49-1.1 1.26-1.78s-.86-1-2.08-.64l-1.65.56.82 2.42zm9.65-1.85l-3.55 1.54v1.16l.89-.22.36.84-2.91 1.25-.36-.84.73-.53.28-7.38 1.1-.48 5.62 4.82.9-.18.36.84-3 1.3-.36-.84.78-.51zm-3.51.32l2.58-1.12-1.8-1.6c-.28-.25-.62-.58-.77-.75v1.06zm8.79-2.1a2.51 2.51 0 0 0 1.51-.35c.64-.35 1.85-1.05 1.36-1.94s-1.42-.48-2.51-.14c-1.39.43-3 .92-3.79-.59-.7-1.29.35-2.74 1.77-3.52s3.16-.9 3.66 0a.92.92 0 0 1-.35 1.3.78.78 0 0 1-1.12-.26.68.68 0 0 1-.08-.46 3.11 3.11 0 0 0-1.5.44c-.91.5-1.52 1.26-1.2 1.83s1.29.4 2.35.08c1.42-.42 3.09-.93 3.95.63.7 1.29 0 2.53-1.9 3.6-1.29.71-3.18 1-3.71 0a.9.9 0 0 1 .35-1.26.8.8 0 0 1 1.11.27.7.7 0 0 1 .1.37zm7.21-4.15a2.49 2.49 0 0 0 1.47-.47c.61-.4 1.75-1.2 1.2-2s-1.45-.36-2.52.07c-1.35.55-2.87 1.17-3.82-.28-.81-1.22.12-2.76 1.47-3.65s3.08-1.16 3.65-.3a.92.92 0 0 1-.25 1.33.78.78 0 0 1-1.13-.17.67.67 0 0 1-.12-.46 3.12 3.12 0 0 0-1.46.56c-.86.57-1.41 1.38-1 1.93s1.32.29 2.34-.11c1.38-.54 3-1.18 4 .3.81 1.22.26 2.52-1.59 3.75-1.23.81-3.09 1.22-3.69.31a.89.89 0 0 1 .24-1.28.8.8 0 0 1 1.12.18.7.7 0 0 1 .09.29zm7.46-4.91l.94-.47.55.73-2.74 2.07-.55-.73.71-.78-3.32-4.4-.94.47-.56-.74 2.74-2.07.56.74-.71.78zm.31-3.57a4.19 4.19 0 0 1 6.28-5.55 4.19 4.19 0 0 1-6.28 5.55zm5.21-4.62a2.77 2.77 0 1 0-4.15 3.67 2.77 2.77 0 1 0 4.15-3.67zm4.01-8.34l-.68-.63 2.2-2.37.68.63-.51.83 4.84 4.49-1 1.09-6.22-.6a14.29 14.29 0 0 1-1.71-.34c.51.37 1.12.86 1.37 1.09l2.67 2.48.79-.57.67.62-2.2 2.37-.67-.62.51-.83-4-3.74-.79.57-.68-.63 1.78-1.92 6 .62c.34 0 1.12.19 1.72.33-.5-.36-1.12-.86-1.37-1.09l-2.6-2.34z" fill="#4d4d4d"/>
</svg>